<svg id="Layer_1" enable-background="new 0 0 512 512" height="512" viewBox="0 0 512 512" width="512" xmlns="http://www.w3.org/2000/svg"><path d="m445.813 405.863c-15.906-6.6-33.546-5.334-48.051 2.819l-24.149-24.149 24.142-24.142c14.506 8.155 32.147 9.422 48.055 2.821 20.697-8.558 34.068-28.562 34.067-50.959 0-22.584-.01-40.187-.01-40.187-.005-8.283-6.721-14.994-15.003-14.992l-40.16.004c-22.399-.002-42.401 13.37-50.953 34.05-6.6 15.907-5.342 33.535 2.8 48.041l-30.364 30.365-75.187-.002v-75.187l62.488-62.488c14.506 8.155 32.147 9.422 48.055 2.821 20.697-8.558 34.068-28.562 34.067-50.959 0-22.584-.01-40.187-.01-40.187-.005-8.283-6.721-14.994-15.003-14.992l-40.16.004c-22.399-.002-42.402 13.37-50.953 34.05-6.6 15.907-5.342 33.535 2.8 48.041l-41.284 41.284v-127.016c16.021-4.492 29.389-16.07 35.969-31.984 8.583-20.687 3.894-44.286-11.944-60.122-15.97-15.969-28.424-28.409-28.424-28.409-5.86-5.854-15.355-5.85-21.209.008l-28.395 28.4c-15.84 15.836-20.528 39.437-11.952 60.106 6.581 15.917 19.938 27.493 35.956 31.992v127.026l-41.284-41.283c8.142-14.506 9.4-32.134 2.8-48.041-8.552-20.68-28.555-34.053-50.953-34.05l-40.16-.004c-8.282-.003-14.998 6.709-15.003 14.992 0 0-.01 17.603-.01 40.187-.001 22.397 13.37 42.4 34.067 50.959 15.908 6.601 33.549 5.334 48.055-2.821l62.487 62.486v75.187l-75.186.002-30.364-30.365c8.142-14.506 9.4-32.134 2.8-48.041-8.552-20.68-28.555-34.053-50.953-34.05l-40.16-.004c-8.282-.003-14.998 6.709-15.003 14.992 0 0-.01 17.603-.01 40.187-.001 22.397 13.37 42.4 34.067 50.959 15.907 6.601 33.549 5.334 48.055-2.821l24.142 24.142-24.149 24.149c-14.505-8.152-32.145-9.419-48.051-2.819-20.697 8.558-34.068 28.562-34.067 50.959 0 22.584.01 40.187.01 40.187.005 8.283 6.721 14.994 15.003 14.992l40.16-.004c22.398.002 42.402-13.37 50.953-34.05 6.601-15.908 5.342-33.538-2.803-48.045l30.367-30.367 75.189-.003v97.468c0 8.284 6.716 15 15 15s15-6.716 15-15v-97.468l75.188.002 30.367 30.367c-8.144 14.507-9.403 32.137-2.802 48.045 8.552 20.68 28.555 34.053 50.953 34.05l40.16.004c8.282.003 14.998-6.709 15.003-14.992 0 0 .01-17.603.01-40.187.002-22.396-13.369-42.4-34.066-50.958zm-44.347-103.254c3.902-9.436 13.021-15.532 23.235-15.531l25.171-.002c.002 6.837.003 15.555.004 25.179.001 10.212-6.096 19.332-15.547 23.241-9.427 3.911-20.184 1.772-27.42-5.465-7.222-7.222-9.361-17.979-5.443-27.422zm-64.266-128.533c3.902-9.436 13.021-15.532 23.235-15.531l25.171-.002c.002 6.837.003 15.555.004 25.179.001 10.212-6.096 19.332-15.547 23.241-9.427 3.911-20.184 1.772-27.42-5.465-7.222-7.222-9.362-17.979-5.443-27.422zm-167.843 27.422c-7.236 7.236-17.993 9.375-27.42 5.465-9.451-3.909-15.548-13.029-15.547-23.241.001-9.624.002-18.342.004-25.179l25.171.002c10.214-.001 19.333 6.096 23.235 15.531 3.919 9.443 1.779 20.2-5.443 27.422zm-64.266 128.533c-7.236 7.236-17.993 9.375-27.42 5.465-9.451-3.909-15.548-13.029-15.547-23.241.001-9.624.002-18.342.004-25.179l25.171.002c10.214-.001 19.333 6.096 23.235 15.531 3.918 9.443 1.779 20.2-5.443 27.422zm5.439 136.434c-3.902 9.436-13.021 15.532-23.235 15.531l-25.171.002c-.002-6.837-.003-15.555-.004-25.179-.001-10.212 6.096-19.332 15.547-23.241 9.427-3.911 20.184-1.772 27.42 5.465 7.222 7.222 9.362 17.979 5.443 27.422zm145.47-369.501c-10.213 0-19.333-6.094-23.239-15.542-3.913-9.431-1.775-20.19 5.447-27.412l17.797-17.8c4.835 4.833 11.001 10.997 17.807 17.801 7.222 7.221 9.359 17.98 5.44 27.428-3.899 9.431-13.019 15.525-23.252 15.525zm193.876 385.035-25.171-.002c-10.214.001-19.333-6.096-23.235-15.531-3.918-9.443-1.779-20.2 5.443-27.422 7.236-7.236 17.993-9.375 27.42-5.465 9.451 3.909 15.548 13.029 15.547 23.241-.001 9.624-.003 18.342-.004 25.179z"/></svg>